{"title":"Senza Pietà AKA Without Pity (A. Lattuada, 1948) XVID","uid":7554746,"size":1335459216,"categoryP":"video","categoryS":"movies","magnet":"?xt=urn:btih:6862387838c86b9518f3d20c29c6ab04fed537d4&amp;dn=Senza+Piet%26agrave%3B+AKA+Without+Pity+%28A.+Lattuada%2C+1948%29+XVID&amp;tr=udp%3A%2F%2Ftracker.openbittorrent.com%3A80&amp;tr=udp%3A%2F%2Fopen.demonii.com%3A1337&amp;tr=udp%3A%2F%2Ftracker.coppersurfer.tk%3A6969&amp;tr=udp%3A%2F%2Fexodus.desync.com%3A6969","seeders":0,"leechers":1,"uploader":"rpessoa","files":3,"time":1345577313,"description":"The Story of a Negro G.I. and a Girl Campfollower!\n &lt;a href=&quot;\nhttp://www.imdb.com/title/tt0040773/&quot; rel=&quot;nofollow&quot; target=&quot;_NEW&quot;&gt;\nhttp://www.imdb.com/title/tt0040773/&lt;/a&gt;\n\nGeneral\nFormat                                   : AVI\nFormat/Info                              : Audio Video Interleave\nFile size                                : 1.24 GiB\nDuration                                 : 1h 25mn\nOverall bit rate                         : 2 071 Kbps\nWriting application                      : VirtualDubMod 1.5.10.2 (build 2540/release)\nWriting library                          : VirtualDubMod build 2540/release\nVideo\nID                                       : 0\nFormat                                   : MPEG-4 Visual\nFormat profile                           : Advanced Simple@L5\nFormat settings, BVOP                    : 1\nFormat settings, QPel                    : No\nFormat settings, GMC                     : No warppoints\nFormat settings, Matrix                  : Default (MPEG)\nCodec ID                                 : XVID\nCodec ID/Hint                            : XviD\nDuration                                 : 1h 25mn\nBit rate                                 : 1 869 Kbps\nWidth                                    : 704 pixels\nHeight                                   : 528 pixels\nDisplay aspect ratio                     : 4:3\nFrame rate                               : 25.000 fps\nColor space                              : YUV\nChroma subsampling                       : 4:2:0\nBit depth                                : 8 bits\nScan type                                : Progressive\nCompression mode                         : Lossy\nBits/(Pixel*Frame)                       : 0.201\nStream size                              : 1.12 GiB (90%)\nWriting library                          : XviD 1.2.1 (UTC 2008-12-04)\nAudio\nID                                       : 1\nFormat                                   : AC-3\nFormat/Info                              : Audio Coding 3\nMode extension                           : CM (complete main)\nFormat settings, Endianness              : Big\nCodec ID                                 : 2000\nDuration                                 : 1h 25mn\nBit rate mode                            : Constant\nBit rate                                 : 192 Kbps\nChannel(s)                               : 2 channels\nChannel positions                        : Front: L R\nSampling rate                            : 48.0 KHz\nBit depth                                : 16 bits\nCompression mode                         : Lossy\nStream size                              : 118 MiB (9%)\nAlignment                                : Split accross interleaves\nInterleave, duration                     : 40 ms (1.00 video frame)\nInterleave, preload duration             : 500 ms\n\nSUBS: English and Italian\n\nMy rip.","torrent":{"xt":"urn:btih:6862387838c86b9518f3d20c29c6ab04fed537d4","amp;dn":"Senza+Piet%26agrave%3B+AKA+Without+Pity+%28A.+Lattuada%2C+1948%29+XVID","amp;tr":["udp%3A%2F%2Ftracker.openbittorrent.com%3A80","udp%3A%2F%2Fopen.demonii.com%3A1337","udp%3A%2F%2Ftracker.coppersurfer.tk%3A6969","udp%3A%2F%2Fexodus.desync.com%3A6969"],"infoHash":"6862387838c86b9518f3d20c29c6ab04fed537d4","infoHashBuffer":{"type":"Buffer","data":[104,98,56,120,56,200,107,149,24,243,210,12,41,198,171,4,254,213,55,212]},"announce":[],"urlList":[]}}